# xmcd
#
# Track frame offsets: 
#        150
#        10341
#        24474
#        31674
#        45670
#        55589
#        67191
#        76651
#        88907
#        99633
#        110204
#        121665
#        136119
#        153181
#        166092
#
# Disc length: 2356 seconds
#
# Revision: 4
# Processed by: cddbd v1.5.2PL0 Copyright (c) Steve Scherf et al.
# Submitted via: ExactAudioCopy v1.0b1
#
DISCID=b009320f
DTITLE=Nezmaři - Zvláštní rána
DYEAR=1992
DGENRE=folk
TTITLE0=Loď
TTITLE1=Praštěná láska
TTITLE2=Kukačka
TTITLE3=Maják
TTITLE4=Přístě beze slov
TTITLE5=Září
TTITLE6=Hlídej
TTITLE7=Blues o nepodané ruce
TTITLE8=Zvláštní rána
TTITLE9=Bláznivej den
TTITLE10=Vichřice P
TTITLE11=Pavučina
TTITLE12=Hej, člověče boží
TTITLE13=Písek
TTITLE14=Ukolébavka
EXTD=YEAR: 1992 ID3G:  54
EXTT0=
EXTT1=
EXTT2=
EXTT3=
EXTT4=
EXTT5=
EXTT6=
EXTT7=
EXTT8=
EXTT9=
EXTT10=
EXTT11=
EXTT12=
EXTT13=
EXTT14=
PLAYORDER=
